<?xml version="1.0" encoding="UTF-8" standalone="no"?>
<!-- Created with Inkscape (http://www.inkscape.org/) -->

<svg
   width="169.37157mm"
   height="83.07917mm"
   viewBox="0 0 169.37157 83.07917"
   version="1.1"
   id="svg1"
   xml:space="preserve"
   sodipodi:docname="eessi_cvmfs_you_are_here.svg"
   inkscape:version="1.4.2 (ebf0e940, 2025-05-08)"
   xmlns:inkscape="http://www.inkscape.org/namespaces/inkscape"
   xmlns:sodipodi="http://sodipodi.sourceforge.net/DTD/sodipodi-0.dtd"
   xmlns="http://www.w3.org/2000/svg"
   xmlns:svg="http://www.w3.org/2000/svg"><sodipodi:namedview
     id="namedview1"
     pagecolor="#ffffff"
     bordercolor="#000000"
     borderopacity="0.25"
     inkscape:showpageshadow="2"
     inkscape:pageopacity="0.0"
     inkscape:pagecheckerboard="0"
     inkscape:deskcolor="#d1d1d1"
     inkscape:document-units="mm"
     inkscape:zoom="1.4660603"
     inkscape:cx="415.74005"
     inkscape:cy="179.73339"
     inkscape:window-width="1440"
     inkscape:window-height="844"
     inkscape:window-x="0"
     inkscape:window-y="0"
     inkscape:window-maximized="0"
     inkscape:current-layer="layer1" /><defs
     id="defs1"><rect
       x="663.68347"
       y="594.10925"
       width="119.36753"
       height="53.885914"
       id="rect17" /><marker
       style="overflow:visible"
       id="DartArrow-5"
       refX="0"
       refY="0"
       orient="auto-start-reverse"
       inkscape:stockid="Dart arrow"
       markerWidth="2"
       markerHeight="2"
       viewBox="0 0 1 1"
       inkscape:isstock="true"
       inkscape:collect="always"
       preserveAspectRatio="xMidYMid"><path
         style="fill:context-stroke;fill-rule:evenodd;stroke:none"
         d="M 0,0 5,-5 -12.5,0 5,5 Z"
         transform="scale(-0.5)"
         id="path6-5" /></marker></defs><g
     inkscape:label="Layer 1"
     inkscape:groupmode="layer"
     id="layer1"
     transform="translate(-39.158333,-101.33542)"><rect
       x="39.158333"
       y="101.33542"
       width="105.83333"
       height="21.695833"
       rx="3.96875"
       ry="3.96875"
       fill="#cc8b45"
       id="rect1"
       style="stroke-width:0.264583" /><text
       class="label"
       x="92.074997"
       y="110.86042"
       font-size="4.7625px"
       font-weight="700"
       id="text1"
       style="font-family:'DejaVu Sans', Arial, sans-serif;text-anchor:middle;fill:#0f3e66;stroke-width:0.264583">Software layer</text><text
       class="label"
       x="92.074997"
       y="117.21042"
       font-size="3.96875px"
       id="text2"
       style="font-family:'DejaVu Sans', Arial, sans-serif;text-anchor:middle;fill:#0f3e66;stroke-width:0.264583">applications + dependencies</text><rect
       x="62.441666"
       y="124.61875"
       width="82.549995"
       height="21.695833"
       rx="3.96875"
       ry="3.96875"
       fill="#dfce8f"
       id="rect2"
       style="stroke-width:0.264583" /><text
       class="label"
       x="103.71667"
       y="134.9375"
       font-size="4.7625px"
       font-weight="700"
       id="text3"
       style="font-family:'DejaVu Sans', Arial, sans-serif;text-anchor:middle;fill:#0f3e66;stroke-width:0.264583">Compatibility layer</text><text
       class="label"
       x="103.71667"
       y="140.75833"
       font-size="3.83646px"
       id="text4"
       style="font-family:'DejaVu Sans', Arial, sans-serif;text-anchor:middle;fill:#0f3e66;stroke-width:0.264583">levelling the ground across Linux distros</text><rect
       x="62.441666"
       y="147.90208"
       width="82.549995"
       height="21.695833"
       rx="3.96875"
       ry="3.96875"
       fill="#7fb2ac"
       id="rect4"
       style="stroke-width:0.264583" /><text
       class="label muted"
       x="103.71667"
       y="158.22084"
       font-size="4.7625px"
       font-weight="700"
       id="text5"
       style="font-family:'DejaVu Sans', Arial, sans-serif;text-anchor:middle;fill:#35516b;stroke-width:0.264583">Filesystem layer</text><text
       class="label muted"
       x="103.71667"
       y="164.30626"
       font-size="3.83646px"
       id="text6"
       style="font-family:'DejaVu Sans', Arial, sans-serif;text-anchor:middle;fill:#35516b;stroke-width:0.264583">distribution of the software stack</text><rect
       x="39.158333"
       y="126.20625"
       width="19.84375"
       height="47.306072"
       rx="3.175"
       ry="3.379005"
       fill="#d8d8d8"
       id="rect6"
       style="stroke-width:0.272949" /><text
       class="left"
       x="49.080208"
       y="133.08542"
       font-size="3.43958px"
       id="text14"
       style="font-family:'DejaVu Sans', Arial, sans-serif;text-anchor:middle;fill:#163850;stroke-width:0.264583"><tspan
         x="49.080208"
         dy="0"
         id="tspan6"
         style="stroke-width:0.264583">Host OS</tspan><tspan
         x="49.080208"
         dy="5.2916665"
         id="tspan7"
         style="stroke-width:0.264583">provides</tspan><tspan
         x="49.080208"
         dy="5.2916665"
         id="tspan8"
         style="stroke-width:0.264583">network</tspan><tspan
         x="49.080208"
         dy="5.2916665"
         id="tspan9"
         style="stroke-width:0.264583">&amp; GPU</tspan><tspan
         x="49.080208"
         dy="5.2916665"
         id="tspan10"
         style="stroke-width:0.264583">drivers,</tspan><tspan
         x="49.080208"
         dy="5.2916665"
         id="tspan11"
         style="stroke-width:0.264583">resource</tspan><tspan
         x="49.080208"
         dy="5.2916665"
         id="tspan12"
         style="stroke-width:0.264583">manager</tspan><tspan
         x="49.080208"
         dy="5.2916665"
         id="tspan13"
         style="stroke-width:0.264583">(Slurm) ...,</tspan><tspan
         x="49.080208"
         id="tspan14"
         dy="5.2916665"
         style="stroke-width:0.264583">......</tspan></text><path
       id="rect14"
       style="font-variation-settings:normal;vector-effect:none;fill:#d8d8d8;fill-opacity:1;stroke-width:0.27019;stroke-linecap:butt;stroke-linejoin:miter;stroke-miterlimit:4;stroke-dasharray:none;stroke-dashoffset:0;stroke-opacity:1;-inkscape-stroke:none;stop-color:#000000"
       d="M 40.216666,171.18542 H 143.93333 c 0.58632,0 1.05833,0.47202 1.05833,1.05833 v 11.1125 c 0,0.58632 -0.47201,1.05834 -1.05833,1.05834 H 40.216666 c -0.586316,0 -1.058333,-0.47202 -1.058333,-1.05834 v -11.1125 c 0,-0.58631 0.472017,-1.05833 1.058333,-1.05833 z" /><text
       class="label"
       x="92.074997"
       y="179.91667"
       font-size="4.49792px"
       id="text15"
       style="font-family:'DejaVu Sans', Arial, sans-serif;text-anchor:middle;fill:#0f3e66;stroke-width:0.264583">host operating system (any Linux distribution)</text><path
       style="font-variation-settings:normal;vector-effect:none;fill:#7fb2ac;fill-opacity:1;stroke:#7fb2ac;stroke-width:0.264583;stroke-linecap:butt;stroke-linejoin:miter;stroke-miterlimit:4;stroke-dasharray:none;stroke-dashoffset:0;stroke-opacity:1;-inkscape-stroke:none;marker-end:url(#DartArrow-5);stop-color:#000000"
       d="m 175.21393,155.51204 -25.9408,3.01638"
       id="path17-6" /><g
       id="g16"
       transform="matrix(0.15984015,0,0,0.16467679,157.77898,101.95304)"><path
         style="fill:#a1cbf7"
         d="m 143.31678,242.67975 c -3.6403,-0.95955 -10.31875,-3.68956 -10.31875,-4.21808 0,-0.073 0.8632,0.30246 1.91823,0.83427 2.68734,1.35464 7.6087,2.92586 10.17041,3.24707 2.3818,0.29866 3.38381,0.21557 12.36209,-1.02499 3.06871,-0.42401 6.23432,-0.84023 7.03468,-0.92492 0.80037,-0.0847 4.84849,-0.62874 8.99584,-1.20899 4.14734,-0.58025 17.36328,-2.41622 29.36875,-4.07995 26.92606,-3.73142 27.76016,-3.9286 32.80833,-7.75563 7.43986,-5.64016 10.49546,-12.43663 10.85208,-24.13787 0.19756,-6.48229 0.19756,-6.48229 0.13402,0 -0.11425,11.6564 -3.36971,18.78816 -11.21782,24.5749 -5.10282,3.76252 -5.2649,3.80124 -30.59224,7.30819 -4.80218,0.66493 -19.27246,2.69294 -32.15617,4.50669 -24.36213,3.42966 -26.48263,3.63762 -29.35945,2.87931 z m -26.85836,-67.18263 c 1e-5,-23.7199 0.0312,-33.38434 0.0693,-21.47653 0.0381,11.9078 0.0381,31.31499 -1e-5,43.12708 -0.0381,11.81209 -0.0693,2.06934 -0.0693,-21.65055 z m 30.83727,33.48877 c -0.1831,-0.34212 -0.26205,-9.23542 -0.23967,-26.99737 0.0183,-14.56796 -0.0118,-26.52962 -0.067,-26.58147 -0.0552,-0.0519 -4.02943,5.33495 -8.83162,11.97066 -9.94895,13.74757 -9.22591,14.98003 -9.05135,-15.42851 0.10319,-17.97637 0.49841,-19.84587 5.63956,-26.67691 5.98,-7.94562 8.36757,-8.80514 32.78054,-11.80097 4.80219,-0.5893 9.11821,-1.12482 9.59115,-1.19005 1.19408,-0.16468 1.61202,-0.82659 -6.67013,10.56376 -4.12663,5.67532 -7.4655,10.35715 -7.41971,10.40409 0.0458,0.0469 2.44595,-0.21243 5.33368,-0.57636 2.88774,-0.36394 5.9648,-0.73533 6.83793,-0.82533 0.87312,-0.09 4.92125,-0.62762 8.99583,-1.19473 13.60948,-1.89421 28.56021,-3.95524 29.93016,-4.12603 1.4038,-0.175 2.04985,0.16294 1.45283,0.75996 -0.20507,0.20507 -0.31364,3.752 -0.35767,11.68476 -0.0632,11.39031 -0.0632,11.39031 -0.13516,0.0438 -0.0517,-8.16059 0.0123,-11.44796 0.22791,-11.70781 0.53646,-0.64639 1.78724,-0.79317 -27.54619,3.2326 -24.44121,3.35436 -27.06245,3.75434 -28.84579,4.40166 -4.98736,1.81031 -9.42374,6.91081 -10.81482,12.43379 -0.97773,3.88184 -1.05635,61.41612 -0.0844,61.78907 0.32952,0.12646 21.1249,-2.61108 23.07629,-3.0378 0.3638,-0.0795 0.58107,-0.0574 0.48283,0.0492 -0.74158,0.80457 -23.92294,3.48689 -24.28517,2.81004 z m 99.27626,-51.41417 c 0.24291,-31.57965 0.13197,-35.32061 -1.16716,-39.35689 -1.54493,-4.79997 -4.99827,-8.95723 -9.21926,-11.09852 -1.23693,-0.62749 -2.54662,-1.40787 -2.91042,-1.73419 -7.36502,-6.606153 -14.12861,-8.462372 -25.10183,-6.889014 -3.69231,0.52941 -6.90564,0.925518 -7.14075,0.880241 -0.2351,-0.04528 2.88245,-0.543199 6.9279,-1.106492 11.19161,-1.558336 12.99242,-1.209795 21.17332,4.098035 2.64155,1.71386 5.87438,3.68926 7.18407,4.38979 5.8062,3.10563 9.56837,8.94572 10.44499,16.21399 0.28515,2.36425 0.0583,60.59812 -0.23608,60.59836 -0.0851,7e-5 -0.0648,-11.69782 0.0452,-25.99531 z m -96.37601,-51.15647 c 1.09429,-0.26613 44.07942,-6.20035 44.42743,-6.13333 0.4492,0.0865 -43.79497,6.32857 -44.42743,6.26791 -0.35277,-0.0338 -0.35277,-0.0488 0,-0.13458 z"
         id="path16" /><path
         style="fill:#87b8f0"
         d="m 131.44734,232.42688 c -0.62436,-0.7523 -1.85704,-4.62799 -2.12523,-6.68195 -0.17365,-1.32993 -0.31325,-17.14985 -0.3827,-43.36865 -0.0769,-29.0228 -0.0494,-35.63555 0.0927,-22.27692 0.11111,10.44895 0.25946,19.05553 0.32967,19.12574 0.0702,0.0702 4.04248,-5.28134 8.82727,-11.89233 4.78479,-6.611 8.74478,-11.97756 8.79999,-11.92571 0.0552,0.0519 0.0853,12.06481 0.0668,26.69547 -0.0331,26.25955 -0.0267,26.60797 0.49494,27.12966 0.41126,0.41126 0.44045,0.52847 0.13159,0.52847 -0.27769,0 -0.39687,0.27998 -0.39687,0.93231 0,1.57977 -15.22521,22.47252 -15.83819,21.73391 z m 114.91788,-68.30685 c 2e-5,-10.62302 0.0328,-14.93026 0.0728,-9.57164 0.04,5.35861 0.04,14.05017 -4e-5,19.31458 -0.0401,5.2644 -0.0728,0.88008 -0.0728,-9.74294 z m -83.27305,-31.15468 c 6.33715,-8.02945 15.00745,-20.81895 14.02513,-20.68836 -5.37471,0.7145 -9.77497,1.20421 -10.15785,1.13048 -0.25983,-0.05 3.69045,-0.6569 8.77839,-1.34857 34.30359,-4.66336 47.71881,-6.39656 47.92378,-6.19159 0.0776,0.0776 -3.25313,4.82229 -7.4016,10.54377 -4.14847,5.72149 -7.52382,10.42168 -7.50077,10.44487 0.023,0.0232 1.56362,-0.14577 3.4235,-0.37548 2.05561,-0.25389 3.4765,-0.3223 3.62363,-0.17447 0.14702,0.14773 -0.34957,0.25709 -1.26493,0.27859 -0.82883,0.0195 -6.329,0.71076 -12.22259,1.5362 -23.06681,3.23067 -25.62381,3.5793 -28.31042,3.85998 -1.52796,0.15963 -4.50453,0.52002 -6.61458,0.80087 -4.61,0.6136 -4.64206,0.61497 -4.30169,0.18371 z"
         id="path15" /><path
         style="fill:#f6c962"
         d="m 171.34686,205.69685 c -0.20962,-0.19087 -2.64331,-1.33632 -5.40821,-2.54545 -12.09953,-5.29131 -11.52652,-4.94397 -12.06434,-7.31293 -0.47524,-2.0933 -4.4e-4,-3.97425 2.41029,-9.54857 3.35941,-7.76792 10.67196,-24.85024 12.88829,-30.10737 2.40607,-5.70722 2.38676,-5.68034 3.6487,-5.07857 1.34254,0.64022 1.30795,0.66343 2.58447,-1.73445 6.99323,-13.13635 5.48429,-12.62839 21.48029,-7.23097 12.40617,4.18613 10.74559,2.97925 12.29807,8.93801 0.70003,2.68686 1.35362,5.13991 1.45243,5.45123 0.13768,0.43379 0.74781,0.75071 2.61156,1.35653 1.33755,0.43477 2.18714,0.79527 1.88797,0.80113 -0.97722,0.0191 -3.93785,-1.10192 -4.64604,-1.7592 -0.89634,-0.83191 -3.06948,-1.07486 -5.50455,-0.6154 -1.68538,0.31801 -12.77245,-4.42379 -25.71765,-10.99912 -0.69342,-0.35222 -0.69342,-0.35222 -2.38125,2.58587 -2.32695,4.05065 -2.59129,4.31098 -3.84535,3.787 -1.30454,-0.54507 -0.37524,-2.45567 -10.23097,21.0344 -0.94638,2.25557 -2.96503,6.77995 -4.48591,10.05417 -4.554,9.80406 -5.1472,12.22645 -3.56465,14.55663 0.63558,0.93586 0.31589,0.77711 11.17864,5.55107 5.45007,2.3952 6.18214,2.77023 5.91974,3.03263 -0.0717,0.0717 -0.30191,-0.0258 -0.51153,-0.21664 z m 60.73763,-22.17497 c -1.06859,-0.35558 -4.37032,-1.21764 -6.4823,-1.69248 -1.6222,-0.36472 -2.9549,-0.7579 -5.4328,-1.60278 -0.58695,-0.20014 -1.28333,-0.36388 -1.54751,-0.36388 -0.26419,0 -0.85552,-0.17333 -1.31407,-0.38518 -0.45856,-0.21185 -1.9053,-0.57993 -3.21499,-0.81795 -1.30969,-0.23802 -2.97656,-0.5474 -3.70417,-0.68753 -0.7276,-0.14012 -1.95746,-0.3087 -2.73301,-0.37462 -0.77555,-0.0659 -1.60899,-0.2184 -1.85208,-0.33883 -0.2431,-0.12043 -1.15637,-0.36656 -2.02949,-0.54695 -0.87313,-0.1804 -2.02524,-0.45435 -2.56026,-0.60878 -0.53502,-0.15443 -1.2105,-0.21862 -1.50107,-0.14263 -0.29056,0.076 -1.63876,-0.0966 -2.99598,-0.38351 -1.35723,-0.28691 -3.063,-0.56122 -3.79061,-0.60958 -0.7276,-0.0484 -1.97776,-0.20493 -2.77812,-0.34795 -0.80037,-0.14301 -1.48797,-0.17362 -1.528,-0.068 -0.04,0.10561 -0.81394,0.0248 -1.71979,-0.17968 -1.85328,-0.41826 -2.92956,-0.44505 -3.0537,-0.076 -0.0516,0.15345 -0.3503,0.14772 -0.77808,-0.0149 -0.7799,-0.29652 -4.30889,-0.55781 -8.66314,-0.64142 -1.60073,-0.0307 -3.62652,-0.0961 -4.50177,-0.14528 -0.87524,-0.0492 -1.71932,-0.0103 -1.87573,0.0864 -0.38342,0.23696 -3.74451,0.3497 -3.96134,0.13287 -0.40907,-0.40907 6.76488,-19.28761 7.70844,-20.28509 0.43208,-0.45677 0.35904,-0.48828 12.68457,5.47149 15.5432,7.51561 13.6307,7.06153 16.95446,4.02546 4.05375,-3.70289 0.47002,-4.38965 34.04397,6.52396 2.27612,0.73988 3.63802,1.31532 3.63802,1.53715 0,0.86411 -5.61415,12.86285 -5.99965,12.82264 -0.11993,-0.0125 -0.57524,-0.1416 -1.0118,-0.28687 z"
         id="path14" /><path
         style="fill:#efb74d"
         d="m 245.97607,196.79275 c 0.20635,-0.71951 0.94194,-2.06588 2.39849,-4.39006 0.51484,-0.8215 0.51484,-0.8215 -5.37408,-3.61626 -6.66362,-3.16243 -6.38414,-2.87139 -5.51266,-5.74056 0.30239,-0.99554 0.54979,-2.11901 0.54979,-2.4966 0,-0.65432 0.0219,-0.66481 0.46568,-0.22351 0.25613,0.25466 2.04183,1.05834 3.96824,1.78594 2.14841,0.81146 3.5568,1.48934 3.64285,1.75337 0.084,0.25763 1.35709,0.89499 3.17101,1.5875 3.65143,1.39402 3.65178,0.6518 -0.003,6.23514 -1.71659,2.62241 -3.0427,4.92152 -3.0427,5.2752 0,0.3448 -0.11076,0.62691 -0.24612,0.62691 -0.14789,0 -0.15488,-0.31812 -0.0175,-0.79707 z m -19.36851,-1.19638 c -0.68397,-0.18715 -1.39399,-0.43323 -1.57782,-0.54684 -0.18383,-0.11361 -0.81484,-0.29198 -1.40225,-0.39638 -5.89025,-1.04681 -9.33599,-1.77692 -12.04821,-2.55288 -0.80037,-0.22898 -2.22912,-0.40433 -3.175,-0.38967 -0.94589,0.0147 -2.24533,-0.15001 -2.88764,-0.36594 -0.81365,-0.27352 -1.2213,-0.30611 -1.34407,-0.10746 -0.0969,0.15682 -0.37051,0.21057 -0.60797,0.11945 -0.23747,-0.0911 -0.80637,0.0212 -1.26424,0.24962 -0.57515,0.28693 -0.97691,0.338 -1.29973,0.16523 -0.25699,-0.13754 -1.75998,-0.37255 -3.33998,-0.52226 -1.57999,-0.14971 -3.45873,-0.46683 -4.17497,-0.70473 -1.04728,-0.34785 -1.74758,-0.39032 -3.57672,-0.21689 -4.46553,0.4234 -10.49905,0.27582 -13.65156,-0.33392 -1.60073,-0.3096 -3.80338,-0.7039 -4.89479,-0.87622 -1.09141,-0.17232 -2.32956,-0.42013 -2.75146,-0.55069 -0.4219,-0.13056 -1.33177,-0.23738 -2.02193,-0.23738 -0.69016,0 -2.42857,-0.22728 -3.86312,-0.50506 -1.43456,-0.27777 -3.08453,-0.58356 -3.66661,-0.67952 -0.58209,-0.096 -1.31851,-0.23684 -1.63651,-0.31308 -0.56099,-0.13448 -1.86518,2.06651 -2.5846,4.36187 -0.10606,0.33839 -0.24923,0.55885 -0.31816,0.48992 -0.16631,-0.16631 1.46389,-3.96349 4.27742,-9.96329 1.26104,-2.68915 3.06698,-6.73728 4.0132,-8.99583 9.74461,-23.2597 8.92955,-21.58348 10.2307,-21.03983 1.25406,0.52398 1.5184,0.26365 3.84535,-3.787 1.68783,-2.93809 1.68783,-2.93809 2.38125,-2.58587 12.9452,6.57533 24.03227,11.31713 25.71765,10.99912 2.36562,-0.44636 4.60721,-0.21432 5.43411,0.56251 0.77028,0.72364 0.59035,1.04978 -0.18969,0.34385 -1.93756,-1.75347 -5.76917,-0.51797 -8.99765,2.90128 -2.65885,2.81596 -1.95771,2.78452 -7.90953,0.35459 -7.42667,-3.03206 -7.58071,-1.77205 -0.23645,1.93413 5.59558,2.82374 5.22899,2.8137 8.07769,0.22131 2.35611,-2.14412 3.25303,-2.60952 5.02912,-2.60952 1.09008,0 31.00514,9.47753 32.70412,10.36114 0.72934,0.37932 0.6174,0.74539 -2.16378,7.07563 -1.44474,3.28837 -3.21885,7.52667 -3.94246,9.41844 -1.58218,4.13636 -3.11052,7.71992 -3.63915,8.53281 -0.42994,0.66115 -0.73686,0.68399 -2.54456,0.18936 z m 8.77264,-16.06436 c 2.35695,-4.9053 3.71574,-8.03041 3.71574,-8.5459 0,-0.22183 -1.3619,-0.79727 -3.63802,-1.53715 -33.57395,-10.91361 -29.99022,-10.22685 -34.04397,-6.52396 -3.32376,3.03607 -1.41126,3.49015 -16.95446,-4.02546 -12.32553,-5.95977 -12.25249,-5.92826 -12.68457,-5.47149 -0.94356,0.99748 -8.11751,19.87602 -7.70844,20.28509 0.21683,0.21683 3.57792,0.10409 3.96134,-0.13287 0.15641,-0.0967 1.00049,-0.13553 1.87573,-0.0864 0.87525,0.0492 2.90104,0.11454 4.50177,0.14528 4.35425,0.0836 7.88324,0.3449 8.66314,0.64142 0.42778,0.16264 0.72646,0.16837 0.77808,0.0149 0.12414,-0.36903 1.20042,-0.34224 3.0537,0.076 0.90585,0.20444 1.67975,0.28529 1.71979,0.17968 0.04,-0.10561 0.72763,-0.075 1.528,0.068 0.80036,0.14302 2.05052,0.29959 2.77812,0.34795 0.72761,0.0484 2.43338,0.32267 3.79061,0.60958 1.35722,0.28692 2.70542,0.45949 2.99598,0.38351 0.29057,-0.076 0.96605,-0.0118 1.50107,0.14263 0.53502,0.15443 1.68713,0.42838 2.56026,0.60878 0.87312,0.18039 1.78639,0.42652 2.02949,0.54695 0.24309,0.12043 1.07653,0.2729 1.85208,0.33883 0.77555,0.0659 2.00541,0.2345 2.73301,0.37462 0.72761,0.14013 2.39448,0.44951 3.70417,0.68753 1.30969,0.23802 2.75643,0.6061 3.21499,0.81795 0.45855,0.21185 1.04988,0.38518 1.31407,0.38518 0.26418,0 0.96056,0.16374 1.54751,0.36388 2.4779,0.84488 3.8106,1.23806 5.4328,1.60278 2.11198,0.47484 5.41371,1.3369 6.4823,1.69248 0.43656,0.14527 0.89187,0.27436 1.0118,0.28687 0.11992,0.0125 1.14768,-1.91202 2.28391,-4.27674 z"
         id="path13" /><path
         style="fill:#6ca0d5"
         d="m 144.72339,242.28881 c -0.89984,-0.11719 -2.68578,-0.56024 -3.96875,-0.98456 -1.28296,-0.42432 -3.04703,-0.98582 -3.92015,-1.24779 -0.87313,-0.26197 -1.43211,-0.5303 -1.24217,-0.5963 0.22125,-0.0769 -0.17504,-0.66555 -1.103,-1.63842 -3.0351,-3.18198 -4.9179,-7.08402 -5.59927,-11.60426 -0.37203,-2.46806 -0.63154,-74.73037 -0.26707,-74.3659 0.0676,0.0676 0.19214,16.25016 0.27681,35.96129 0.16349,38.06232 0.18229,38.59529 1.48866,42.20562 1.09179,3.01732 1.27301,3.11611 2.54534,1.38764 10.29473,-13.98543 14.35174,-19.83764 14.35174,-20.70229 0,-0.83197 0.0816,-0.93248 0.85989,-1.05909 3.57163,-0.58103 18.35471,-2.53703 18.68851,-2.47274 0.43182,0.0832 -17.43732,2.61721 -18.32647,2.5989 -1.36361,-0.0281 0.53719,4.57874 2.95619,7.16466 4.08593,4.36787 5.53652,4.54334 20.55017,2.48578 20.18362,-2.76609 19.71574,-2.79131 25.13931,1.35511 1.16766,0.89269 2.53974,1.81791 3.04906,2.05603 1.01928,0.47653 2.89207,1.57315 3.3073,1.93659 0.76161,0.66663 8.67424,4.30616 9.36193,4.30616 0.15257,0 0.6684,0.16768 1.14628,0.37263 0.47788,0.20495 1.8809,0.75018 3.11783,1.21164 1.23693,0.46145 2.38598,1.01475 2.55346,1.22956 1.23458,1.58353 11.53391,-1.44123 15.72292,-4.61759 7.47633,-5.669 10.50087,-12.70045 10.60504,-24.65457 0.045,-5.15938 0.045,-5.15938 0.24638,-0.52917 0.71629,16.46574 -8.41125,28.59231 -22.71536,30.17891 -2.18107,0.24192 -7.16865,0.92957 -41.20515,5.68101 -36.52007,5.09815 -34.02111,4.80978 -37.61943,4.34115 z m -28.00255,-48.66774 c 0,-13.75171 0.0321,-19.37742 0.0714,-12.50156 0.0393,6.87586 0.0393,18.12727 0,25.00313 -0.0393,6.87586 -0.0714,1.25015 -0.0714,-12.50157 z m 128.72511,-10.36532 c -3.57296,-1.29519 -6.87917,-2.71704 -6.87917,-2.95841 0,-0.1635 0.95997,-2.95407 2.13327,-6.20126 2.64313,-7.31503 2.88561,-6.48666 -2.39996,-8.1986 -11.41261,-3.69642 -10.16686,-1.78957 -10.32245,-15.80036 -0.15562,-14.01382 -0.17477,-14.15782 -2.32444,-17.48379 -2.27741,-3.52359 -8.09917,-6.73216 -9.74761,-5.37225 -0.40439,0.33362 -0.41558,0.31276 -0.12489,-0.23278 0.48163,-0.90386 -0.0638,-0.97853 -3.74899,-0.51327 -1.77636,0.22427 -3.24878,0.38774 -3.27205,0.36326 -0.0233,-0.0245 3.35189,-4.72572 7.50036,-10.44721 4.14847,-5.72148 7.47919,-10.46618 7.4016,-10.54377 -0.20552,-0.20552 -15.03013,1.70846 -48.59484,6.27398 -30.22231,4.11088 -28.37464,3.7865 -31.70344,5.566 -5.89692,3.15236 -10.49173,8.55924 -12.9102,15.19191 -0.47755,1.30969 -0.87422,2.23865 -0.88149,2.06435 -0.0323,-0.77495 1.7368,-5.02839 2.88828,-6.94429 3.92664,-6.53331 9.44337,-10.92594 15.48031,-12.326 1.75594,-0.40723 43.62194,-6.3617 56.58814,-8.04835 4.38732,-0.57071 11.19163,-1.47549 15.12069,-2.01062 5.71263,-0.77805 7.66054,-0.94549 9.72344,-0.83577 2.93753,0.15623 3.04954,0.0753 1.31766,-0.9523 -1.20489,-0.71489 -2.9907,-2.03466 -2.17756,-1.60928 1.26919,0.66395 3.94707,2.55091 4.60745,3.24663 0.42405,0.44674 1.79327,1.31634 3.04271,1.93246 5.64306,2.78267 9.29067,8.52918 10.07735,15.87603 0.67536,6.30715 -0.0389,60.23747 -0.79417,59.96369 z m -93.13334,-76.8422 c 1.23817,-0.30646 44.03474,-6.19256 44.28302,-6.09055 0.17457,0.0717 0.14034,0.13167 -0.0822,0.14385 -0.20979,0.0115 -10.10919,1.39011 -21.99866,3.0636 -18.7584,2.64032 -23.93974,3.31315 -22.20219,2.8831 z"
         id="path12" /><path
         style="fill:#e09d1e"
         d="m 214.09282,224.53679 c -5.23875,-2.32793 -16.769,-7.43056 -25.62278,-11.33918 -8.85379,-3.90861 -16.23566,-7.28577 -16.40417,-7.50478 -0.16851,-0.21902 -3.04482,-1.60095 -6.3918,-3.07097 -3.34698,-1.47001 -6.91886,-3.04185 -7.9375,-3.49297 -3.56402,-1.57836 -4.49636,-4.16776 -2.8918,-8.03146 1.48327,-3.57169 1.98812,-4.40715 2.57769,-4.26581 0.31828,0.0763 1.05494,0.21725 1.63703,0.31321 0.58208,0.096 2.23205,0.40175 3.66661,0.67952 1.43455,0.27778 3.17296,0.50506 3.86312,0.50506 0.69016,0 1.60003,0.10682 2.02193,0.23738 0.4219,0.13056 1.66005,0.37837 2.75146,0.55069 1.09141,0.17232 3.29406,0.56662 4.89479,0.87622 3.15251,0.60974 9.18603,0.75732 13.65156,0.33392 1.82914,-0.17343 2.52944,-0.13096 3.57672,0.21689 0.71624,0.2379 2.59498,0.55502 4.17497,0.70473 1.58,0.14971 3.08299,0.38472 3.33998,0.52226 0.32282,0.17277 0.72458,0.1217 1.29973,-0.16523 0.45787,-0.22841 1.02677,-0.34074 1.26424,-0.24962 0.23746,0.0911 0.51105,0.0374 0.60797,-0.11945 0.12277,-0.19865 0.53042,-0.16606 1.34407,0.10746 0.64231,0.21593 1.94175,0.3806 2.88764,0.36594 0.94588,-0.0147 2.37463,0.16069 3.175,0.38967 2.84431,0.81375 3.03785,0.85497 12.03854,2.56404 0.58208,0.11052 1.35599,0.32777 1.71979,0.48277 3.6454,1.55313 3.85144,1.31664 7.66903,-8.80205 0.60392,-1.60073 2.28061,-5.6009 3.72596,-8.88927 2.78226,-6.32998 2.89433,-6.69627 2.16491,-7.07563 -1.69898,-0.88361 -31.61404,-10.36114 -32.70412,-10.36114 -1.77609,0 -2.67301,0.4654 -5.02912,2.60952 -2.8487,2.59239 -2.48211,2.60243 -8.07769,-0.22131 -7.34426,-3.70618 -7.19022,-4.96619 0.23645,-1.93413 5.95182,2.42993 5.25068,2.46137 7.90953,-0.35459 3.1629,-3.34979 7.02846,-4.63894 8.92988,-2.97807 0.68064,0.59452 4.73773,1.89358 5.32839,1.70611 0.27189,-0.0863 3.20203,0.77457 6.68673,1.96453 3.41152,1.16498 9.29838,3.14132 13.08193,4.39188 3.78354,1.25056 6.97541,2.36484 7.09304,2.47618 0.11764,0.11134 -0.8051,2.99115 -2.05052,6.39959 -1.24542,3.40843 -2.2644,6.41314 -2.2644,6.67713 0,0.26398 -0.2474,1.2945 -0.54979,2.29004 -0.87138,2.86884 -1.14959,2.57879 5.50063,5.73484 6.67672,3.16864 6.16137,2.47157 4.16543,5.63411 -0.50513,0.80037 -1.02018,1.81775 -1.14457,2.26086 -0.27919,0.99452 -4.67055,7.7181 -11.31109,17.31831 -2.76809,4.00182 -5.90286,8.58573 -6.96617,10.18646 -2.00912,3.02459 -3.35734,4.64495 -3.8354,4.60958 -0.15336,-0.0113 -4.56508,-1.9253 -9.80383,-4.25324 z"
         id="path11" /><path
         style="fill:#4b7695"
         d="m 133.05928,238.10789 c -7.29356,-4.38356 -13.43849,-10.90353 -15.48967,-16.43504 -1.17612,-3.17171 -1.14396,-89.05727 0.035,-93.45028 2.46419,-9.18197 9.58151,-16.76243 17.83143,-18.99177 1.06019,-0.28649 7.10683,-1.23876 13.43699,-2.11615 12.1551,-1.68476 40.85611,-5.72799 56.62083,-7.976411 13.39633,-1.910632 15.13312,-1.674718 22.67836,3.080491 4.48153,2.82438 4.4481,2.75252 1.20029,2.57979 -2.0629,-0.10972 -4.01081,0.0577 -9.72344,0.83577 -3.92906,0.53513 -10.73337,1.43991 -15.12069,2.01062 -12.9662,1.68665 -54.8322,7.64112 -56.58814,8.04835 -8.12238,1.88371 -15.42635,9.41141 -18.2903,18.85057 -0.96074,3.16644 -1.03107,6.50594 -1.09928,52.19808 -0.0685,45.91868 -0.2197,44.62343 5.96433,51.10674 1.80506,1.89242 1.38586,1.96707 -1.45571,0.25924 z m 0.6821,-0.51018 c -2.11292,-2.33874 -3.91122,-5.67826 -4.87423,-9.05164 -0.58357,-2.04419 -0.92823,-82.79198 -0.3796,-88.93241 0.55961,-6.26334 2.50457,-10.77325 7.42022,-17.20574 0.53623,-0.70169 0.53623,-0.70169 -4.78233,-3.93443 -5.93446,-3.6071 -5.62698,-3.63015 -8.90338,0.66738 -5.36533,7.03752 -5.46138,8.32367 -5.11714,68.52708 0.20718,36.23414 0.0378,33.03231 1.94639,36.79869 2.13261,4.2085 12.23789,13.41001 15.49886,14.11271 0.0533,0.0115 -0.31064,-0.43025 -0.80879,-0.98164 z m 85.96749,-5.68391 c -0.071,-0.18504 -1.18507,-0.73062 -2.4757,-1.21241 -1.29063,-0.48179 -2.73759,-1.04476 -3.21547,-1.25106 -0.47788,-0.2063 -0.99371,-0.37509 -1.14628,-0.37509 -0.68769,0 -8.60032,-3.63953 -9.36193,-4.30616 -0.41523,-0.36344 -2.28802,-1.46006 -3.3073,-1.93659 -0.50932,-0.23812 -1.8814,-1.16334 -3.04906,-2.05603 -5.42357,-4.14642 -4.95569,-4.1212 -25.13931,-1.35511 -13.25854,1.81703 -14.19917,1.81361 -17.64922,-0.0641 -3.61806,-1.96919 -8.11155,-9.59655 -5.6536,-9.59655 1.50431,0 22.99624,-3.17664 23.3222,-3.44716 0.25634,-0.21274 0.67687,-0.11954 1.62361,0.35982 2.79604,1.41574 18.58226,8.48759 20.19538,9.04705 0.94589,0.32806 6.95855,2.9147 13.36146,5.74809 6.40292,2.83339 12.78951,5.65578 14.19243,6.27196 3.55118,1.55974 2.58519,2.57717 14.43301,-15.20164 11.16963,-16.76113 10.13624,-15.75145 10.13446,-9.90188 -0.005,16.8383 -8.12371,27.4524 -22.35573,29.22744 -3.65561,0.45594 -3.7525,0.45716 -3.90895,0.0495 z m 8.20843,-69.16678 c -0.43246,-0.11301 -0.46302,-0.91947 -0.46302,-12.21684 0,-13.26897 -0.0346,-13.62859 -1.6099,-16.7493 -1.57239,-3.1149 -4.90481,-5.64294 -8.2662,-6.27092 -2.24396,-0.41922 -2.15643,-1.15458 -1.80043,15.12581 0.34688,15.86335 0.35036,16.19942 0.1658,16.01485 -0.15759,-0.15758 -0.52781,-18.16782 -0.52781,-25.67607 0,-6.77397 0.40024,-7.13284 5.35373,-4.80039 6.11519,2.87947 7.21397,6.30368 7.21397,22.4813 0,10.88134 0.0331,11.73775 0.46303,11.98817 0.47663,0.27761 0.28258,0.31553 -0.52917,0.10339 z"
         id="path10" /><path
         style="fill:#3b5a6f"
         d="m 134.05648,238.403 c -3.9327,-1.54095 -12.98376,-9.94731 -15.00517,-13.93636 -1.90856,-3.76638 -1.73921,-0.56455 -1.94639,-36.79869 -0.34424,-60.20341 -0.24819,-61.48956 5.11714,-68.52708 3.2764,-4.29753 2.96892,-4.27448 8.90338,-0.66738 5.31856,3.23274 5.31856,3.23274 4.78233,3.93443 -4.91565,6.43249 -6.86061,10.9424 -7.42022,17.20574 -0.54863,6.14043 -0.20397,86.88822 0.3796,88.93241 0.96301,3.37338 2.76131,6.7129 4.87423,9.05164 0.49815,0.55139 0.8621,0.99313 0.80879,0.98164 -0.0533,-0.0115 -0.27548,-0.0908 -0.49369,-0.17635 z m 87.52922,-77.80956 c -2.86392,-0.97079 -5.26417,-1.82461 -5.3339,-1.89737 -0.41541,-0.43347 -0.76176,-30.16688 -0.35857,-30.78222 1.91661,-2.92513 9.6927,3.34743 11.16706,9.00786 0.53459,2.05245 0.59284,25.49107 0.0633,25.45767 -0.1819,-0.0115 -2.67393,-0.81515 -5.53785,-1.78594 z"
         id="path9" /></g><ellipse
       style="font-variation-settings:normal;vector-effect:none;fill:#c83737;fill-opacity:1;stroke:#c83737;stroke-width:0.264583;stroke-linecap:butt;stroke-linejoin:miter;stroke-miterlimit:4;stroke-dasharray:none;stroke-dashoffset:0;stroke-opacity:1;-inkscape-stroke:none"
       id="path17"
       cx="187.8717"
       cy="154.39407"
       rx="2.5266125"
       ry="2.527" /><text
       xml:space="preserve"
       transform="matrix(0.26458333,0,0,0.26458333,1.3137839e-6,2.8875561)"
       id="text17"
       style="line-height:normal;font-family:'DejaVu Sans', Arial, sans-serif;-inkscape-font-specification:'DejaVu Sans, Arial, sans-serif, Normal';font-variation-settings:normal;text-align:start;text-decoration-color:#000000;writing-mode:lr-tb;direction:ltr;white-space:pre;shape-inside:url(#rect17);display:inline;vector-effect:none;fill:#c83737;fill-opacity:1;stroke:#c83737;stroke-width:0.999999;stroke-linecap:butt;stroke-linejoin:miter;stroke-miterlimit:4;stroke-dasharray:none;stroke-dashoffset:0;stroke-opacity:1;-inkscape-stroke:none"><tspan
         x="663.68359"
         y="604.91843"
         id="tspan1">YOU ARE HERE</tspan></text></g></svg>
